#N canvas 1 4 772 277 10;
#X obj 108 -162 dumpOSC 9000;
#X obj 177 -121 OSCroute /@harddrivin;
#X obj 38 -121 OSCroute /#harddrivin;
#X obj -81 62 sendOSC;
#X obj -81 -43 loadbang;
#X msg -81 -16 connect localhost 9001;
#X obj -59 12 r send_osc;
#N canvas 244 176 643 162 manual-control 0;
#X obj 55 67 s send_osc;
#X floatatom 226 13 5 300 1000 0 - - -;
#X msg 14 -45 F;
#X msg 14 29 B;
#X msg -20 -23 FL;
#X msg 49 -23 FR;
#X msg -20 6 BL;
#X msg 48 7 BR;
#X floatatom 552 9 5 300 1000 0 - - -;
#X msg 343 -46 F;
#X msg 343 28 B;
#X msg 309 -24 FL;
#X msg 378 -24 FR;
#X msg 309 5 BL;
#X msg 377 6 BR;
#X obj 381 67 s send_osc;
#X text 140 13 duration (ms);
#X obj 199 -37 loadbang;
#X msg 199 -14 300;
#X obj 540 -37 loadbang;
#X msg 540 -14 300;
#X text 467 9 duration (ms);
#X text 105 -24 CAR 1;
#X text 431 -26 CAR 2;
#X obj 55 38 sprintf send /movecar 1 %s %d;
#X obj 381 38 sprintf send /movecar 2 %s %d;
#X connect 1 0 24 1;
#X connect 2 0 24 0;
#X connect 3 0 24 0;
#X connect 4 0 24 0;
#X connect 5 0 24 0;
#X connect 6 0 24 0;
#X connect 7 0 24 0;
#X connect 8 0 25 1;
#X connect 9 0 25 0;
#X connect 10 0 25 0;
#X connect 11 0 25 0;
#X connect 12 0 25 0;
#X connect 13 0 25 0;
#X connect 14 0 25 0;
#X connect 17 0 18 0;
#X connect 18 0 1 0;
#X connect 19 0 20 0;
#X connect 20 0 8 0;
#X connect 24 0 0 0;
#X connect 25 0 15 0;
#X restore 457 -109 pd manual-control;
#X obj 48 38 prepend set;
#X msg 48 62 send /stopcar 2;
#X text 128 38 comment;
#X obj 364 -135 bng 15 250 50 0 empty empty empty 17 7 0 10 -262144
-1 -1;
#X text 386 -136 PANIC;
#N canvas 0 0 232 227 panic 0;
#X obj 29 21 inlet;
#X obj 29 177 s send_osc;
#X obj 29 54 t b b;
#X msg 56 89 send /stopcar 1;
#X msg 29 112 send /stopcar 2;
#X connect 0 0 2 0;
#X connect 2 0 4 0;
#X connect 2 1 3 0;
#X connect 3 0 1 0;
#X connect 4 0 1 0;
#X restore 364 -109 pd panic;
#X obj 207 -63 bng 15 250 50 0 empty empty empty 17 7 0 10 -262144
-1 -1;
#X obj 207 27 bng 15 250 50 0 empty empty empty 17 7 0 10 -262144 -1
-1;
#X obj 207 -15 bng 15 250 50 0 empty empty empty 17 7 0 10 -262144
-1 -1;
#N canvas 0 0 360 295 move1 0;
#X obj 28 116 bng 15 250 50 0 empty empty empty 17 7 0 10 -262144 -1
-1;
#X obj 28 139 random 2;
#X obj 28 162 + 1;
#X text 24 95 random car;
#X obj 104 116 bng 15 250 50 0 empty empty empty 17 7 0 10 -262144
-1 -1;
#X text 100 95 random direction;
#X obj 104 139 random 6;
#X obj 218 116 bng 15 250 50 0 empty empty empty 17 7 0 10 -262144
-1 -1;
#X text 214 95 random duration;
#X obj 218 163 + 300;
#X obj 218 139 random 700;
#X text 261 162 300ms to 1s;
#X obj 28 18 inlet;
#X obj 28 49 t b b b;
#X obj 28 252 s send_osc;
#X obj 104 162 int2dir;
#X obj 28 222 sprintf send /movecar %d %s %d;
#X connect 0 0 1 0;
#X connect 1 0 2 0;
#X connect 2 0 16 0;
#X connect 4 0 6 0;
#X connect 6 0 15 0;
#X connect 7 0 10 0;
#X connect 9 0 16 2;
#X connect 10 0 9 0;
#X connect 12 0 13 0;
#X connect 13 0 0 0;
#X connect 13 1 4 0;
#X connect 13 2 7 0;
#X connect 15 0 16 1;
#X connect 16 0 14 0;
#X restore 225 -63 pd move1;
#X obj 207 -39 bng 15 250 50 0 empty empty empty 17 7 0 10 -262144
-1 -1;
#X text 310 27 both cars \, same random direction \, same random duration
;
#X text 310 -15 random car \, random direction \, tweet length duration
;
#X obj 207 51 bng 15 250 50 0 empty empty empty 17 7 0 10 -262144 -1
-1;
#X text 309 -63 random car \, random direction \, random duration;
#N canvas 0 92 674 373 move3 0;
#X obj 97 113 bng 15 250 50 0 empty empty empty 17 7 0 10 -262144 -1
-1;
#X text 93 92 random direction;
#X obj 97 136 random 6;
#X obj 21 15 inlet;
#X obj 21 249 s send_osc;
#X obj 97 159 int2dir;
#X obj 238 184 t f f;
#X obj 97 183 t f f;
#X obj 238 136 strlen;
#X obj 238 160 autoscale 300 1200;
#X obj 21 46 t b a;
#X floatatom 329 186 5 0 0 0 - - -;
#X msg 179 -65 hello;
#X msg 223 -9 this is a very long message. I don't know if it is under
140 characters \, but I think it should be ok for testing purposes.
;
#X floatatom 287 135 5 0 0 0 - - -;
#X msg 204 -36 hi \, this is a slightly longer message;
#X obj 223 44 drip;
#X obj 281 71 print;
#X obj 21 219 sprintf send /movecar 1 %s %d;
#X obj 213 219 sprintf send /movecar 2 %s %d;
#X connect 0 0 2 0;
#X connect 2 0 5 0;
#X connect 3 0 10 0;
#X connect 5 0 7 0;
#X connect 6 0 18 1;
#X connect 6 1 19 1;
#X connect 7 0 18 0;
#X connect 7 1 19 0;
#X connect 9 0 6 0;
#X connect 9 0 11 0;
#X connect 10 0 0 0;
#X connect 12 0 16 0;
#X connect 13 0 16 0;
#X connect 15 0 16 0;
#X connect 16 0 17 0;
#X connect 18 0 4 0;
#X connect 19 0 4 0;
#X restore 225 -15 pd move3;
#N canvas 0 0 499 356 move4 0;
#X obj 97 113 bng 15 250 50 0 empty empty empty 17 7 0 10 -262144 -1
-1;
#X text 93 92 random direction;
#X obj 97 136 random 6;
#X obj 235 114 bng 15 250 50 0 empty empty empty 17 7 0 10 -262144
-1 -1;
#X text 231 93 random duration;
#X obj 235 161 + 300;
#X obj 235 137 random 700;
#X text 278 160 300ms to 1s;
#X obj 21 15 inlet;
#X obj 21 249 s send_osc;
#X obj 97 159 int2dir;
#X obj 21 46 t b b;
#X obj 235 185 t f f;
#X obj 97 183 t a a;
#X obj 21 220 sprintf send /movecar 1 %s %d;
#X obj 211 220 sprintf send /movecar 2 %s %d;
#X connect 0 0 2 0;
#X connect 2 0 10 0;
#X connect 3 0 6 0;
#X connect 5 0 12 0;
#X connect 6 0 5 0;
#X connect 8 0 11 0;
#X connect 10 0 13 0;
#X connect 11 0 0 0;
#X connect 11 1 3 0;
#X connect 12 0 14 1;
#X connect 12 1 15 1;
#X connect 13 0 14 0;
#X connect 13 1 15 0;
#X connect 14 0 9 0;
#X connect 15 0 9 0;
#X restore 224 27 pd move4;
#N canvas 0 0 499 356 move5 0;
#X obj 97 113 bng 15 250 50 0 empty empty empty 17 7 0 10 -262144 -1
-1;
#X text 93 92 random direction;
#X obj 97 136 random 6;
#X obj 235 114 bng 15 250 50 0 empty empty empty 17 7 0 10 -262144
-1 -1;
#X text 231 93 random duration;
#X obj 235 161 + 300;
#X obj 235 137 random 700;
#X text 278 160 300ms to 1s;
#X obj 21 15 inlet;
#X obj 21 249 s send_osc;
#X obj 97 159 int2dir;
#X obj 21 46 t b b;
#X obj 235 185 t f f;
#X obj 97 183 t a a;
#X obj 21 219 sprintf send /movecar 1 %s %d;
#X obj 211 219 sprintf send /movecar 2 %s %d;
#X connect 0 0 2 0;
#X connect 2 0 10 0;
#X connect 3 0 6 0;
#X connect 5 0 12 0;
#X connect 6 0 5 0;
#X connect 8 0 11 0;
#X connect 10 0 13 0;
#X connect 11 0 0 0;
#X connect 11 1 3 0;
#X connect 12 0 14 1;
#X connect 12 1 15 1;
#X connect 13 0 14 0;
#X connect 13 1 15 0;
#X connect 14 0 9 0;
#X connect 15 0 9 0;
#X restore 225 51 pd move5;
#X text 310 51 both cars \, diff. random direction \, same short duration
;
#X obj 207 75 bng 15 250 50 0 empty empty empty 17 7 0 10 -262144 -1
-1;
#N canvas 0 0 499 356 move6 0;
#X obj 97 113 bng 15 250 50 0 empty empty empty 17 7 0 10 -262144 -1
-1;
#X text 93 92 random direction;
#X obj 97 136 random 6;
#X obj 231 113 bng 15 250 50 0 empty empty empty 17 7 0 10 -262144
-1 -1;
#X text 227 92 random duration;
#X obj 231 160 + 300;
#X obj 231 136 random 700;
#X text 274 159 300ms to 1s;
#X obj 21 15 inlet;
#X obj 21 249 s send_osc;
#X obj 97 159 int2dir;
#X obj 21 46 t b b;
#X obj 231 184 t f f;
#X obj 97 183 t a a;
#X obj 21 219 sprintf send /movecar 1 %s %d;
#X obj 206 220 sprintf send /movecar 2 %s %d;
#X connect 0 0 2 0;
#X connect 2 0 10 0;
#X connect 3 0 6 0;
#X connect 5 0 12 0;
#X connect 6 0 5 0;
#X connect 8 0 11 0;
#X connect 10 0 13 0;
#X connect 11 0 0 0;
#X connect 11 1 3 0;
#X connect 12 0 14 1;
#X connect 12 1 15 1;
#X connect 13 0 14 0;
#X connect 13 1 15 0;
#X connect 14 0 9 0;
#X connect 15 0 9 0;
#X restore 225 75 pd move6;
#X text 310 76 both cars \, diff. random direction \, tweet length
duration;
#X text 309 -39 random car \, random direction \, set duration;
#X obj 224 -39 move2 350;
#X connect 0 0 1 0;
#X connect 0 0 2 0;
#X connect 1 0 17 0;
#X connect 4 0 5 0;
#X connect 5 0 3 0;
#X connect 6 0 3 0;
#X connect 6 0 8 0;
#X connect 8 0 9 0;
#X connect 11 0 13 0;
#X connect 14 0 17 0;
#X connect 15 0 24 0;
#X connect 16 0 23 0;
#X connect 18 0 31 0;
#X connect 21 0 25 0;
#X connect 27 0 28 0;
