#N canvas 0 0 252 248 10;
#X obj 3 -31 inlet;
#X obj 3 166 outlet;
#X obj 3 1 sel 0 1 2 3 4 5;
#X msg 149 42 F;
#X msg 149 116 B;
#X msg 115 64 FL;
#X msg 184 64 FR;
#X msg 115 93 BL;
#X msg 183 94 BR;
#X connect 0 0 2 0;
#X connect 2 0 3 0;
#X connect 2 1 6 0;
#X connect 2 2 8 0;
#X connect 2 3 4 0;
#X connect 2 4 7 0;
#X connect 2 5 5 0;
#X connect 3 0 1 0;
#X connect 4 0 1 0;
#X connect 5 0 1 0;
#X connect 6 0 1 0;
#X connect 7 0 1 0;
#X connect 8 0 1 0;
