#N canvas 657 211 524 394 10;
#X obj 72 124 bng 15 250 50 0 empty empty empty 17 7 0 10 -262144 -1
-1;
#X text 68 103 random direction;
#X obj 72 147 random 6;
#X obj 31 259 s send_osc;
#X obj 72 170 int2dir;
#X obj 248 194 t f f;
#X obj 72 26 t b a;
#X floatatom 339 196 5 0 0 0 - - -;
#X obj 31 229 sprintf send /movecar 1 %s %d;
#X obj 223 229 sprintf send /movecar 2 %s %d;
#X obj 38 -41 inlet;
#X obj 72 194 t a a;
#X obj 248 170 autoscale 80 300;
#X connect 0 0 2 0;
#X connect 2 0 4 0;
#X connect 4 0 11 0;
#X connect 5 0 8 1;
#X connect 5 1 9 1;
#X connect 6 0 0 0;
#X connect 6 1 12 0;
#X connect 8 0 3 0;
#X connect 9 0 3 0;
#X connect 10 0 6 0;
#X connect 11 0 8 0;
#X connect 11 1 9 0;
#X connect 12 0 5 0;
#X connect 12 0 7 0;
